<svg width="485" height="122" viewBox="0 0 485 122" fill="none" xmlns="http://www.w3.org/2000/svg">
<rect width="484.896" height="121.35" rx="5" fill="#F90000"/>
<path d="M443.332 28.75L402.832 94.55L399.482 93.1H426.132C427.932 93.1 429.498 92.9333 430.832 92.6C432.198 92.2333 433.415 91.5833 434.482 90.65C435.582 89.7167 436.632 88.3833 437.632 86.65C438.665 84.8833 439.782 82.6 440.982 79.8L442.232 76.7C442.399 76.2667 442.615 75.9833 442.882 75.85C443.182 75.6833 443.532 75.6333 443.932 75.7C444.365 75.8 444.648 76 444.782 76.3C444.915 76.6 444.932 76.9833 444.832 77.45L441.482 95.15C441.349 95.8167 441.132 96.3 440.832 96.6C440.565 96.9333 440.182 97.1 439.682 97.1C439.282 97.1 438.865 96.9833 438.432 96.75C438.032 96.5167 437.565 96.2667 437.032 96C436.532 95.7667 435.882 95.65 435.082 95.65H392.682C392.148 95.65 391.748 95.5333 391.482 95.3C391.248 95.0667 391.132 94.7667 391.132 94.4C391.132 94.1333 391.182 93.85 391.282 93.55C391.415 93.25 391.598 92.9167 391.832 92.55L432.532 26.7L433.382 28.2H410.582C408.682 28.2 406.998 28.5167 405.532 29.15C404.098 29.75 402.782 30.8 401.582 32.3C400.415 33.7667 399.265 35.8 398.132 38.4L396.732 41.95C396.498 42.4833 396.215 42.85 395.882 43.05C395.549 43.2167 395.182 43.25 394.782 43.15C394.382 43.0833 394.082 42.8833 393.882 42.55C393.715 42.2167 393.698 41.7667 393.832 41.2L396.832 25.95C396.965 25.25 397.182 24.75 397.482 24.45C397.815 24.15 398.232 24 398.732 24C399.165 24 399.582 24.1333 399.982 24.4C400.382 24.6667 400.832 24.95 401.332 25.25C401.865 25.5167 402.498 25.65 403.232 25.65H442.532C443.032 25.65 443.415 25.7667 443.682 26C443.948 26.2 444.082 26.5 444.082 26.9C444.082 27.1333 444.015 27.4 443.882 27.7C443.782 28 443.598 28.35 443.332 28.75Z" fill="white"/>
<path d="M362.501 71.5004L353.151 73.2004L332.401 30.9004C332.001 30.1004 331.585 29.5337 331.151 29.2004C330.751 28.8337 330.218 28.5671 329.551 28.4004L327.501 28.0004C327.001 27.8337 326.651 27.6504 326.451 27.4504C326.285 27.2504 326.201 27.0171 326.201 26.7504C326.201 26.3837 326.335 26.1171 326.601 25.9504C326.868 25.7504 327.268 25.6504 327.801 25.6504H349.501C350.035 25.6504 350.451 25.7504 350.751 25.9504C351.051 26.1171 351.201 26.3837 351.201 26.7504C351.201 27.3837 350.685 27.8171 349.651 28.0504L346.051 28.5504C344.985 28.7504 344.335 29.0337 344.101 29.4004C343.868 29.7671 343.935 30.3337 344.301 31.1004L362.251 68.9504L359.851 70.4004L376.851 34.7004C377.585 33.1337 377.701 31.8171 377.201 30.7504C376.701 29.6837 375.535 28.9337 373.701 28.5004L370.901 28.0004C370.535 27.9004 370.251 27.7504 370.051 27.5504C369.851 27.3504 369.751 27.1004 369.751 26.8004C369.751 26.4337 369.885 26.1504 370.151 25.9504C370.418 25.7504 370.801 25.6504 371.301 25.6504H386.751C387.285 25.6504 387.685 25.7504 387.951 25.9504C388.218 26.1504 388.351 26.4171 388.351 26.7504C388.351 27.0504 388.251 27.3004 388.051 27.5004C387.885 27.7004 387.551 27.8671 387.051 28.0004L386.151 28.3004C385.251 28.5337 384.451 28.9004 383.751 29.4004C383.085 29.9004 382.451 30.6004 381.851 31.5004C381.251 32.3671 380.635 33.5004 380.001 34.9004L362.501 71.5004ZM352.101 70.0004L363.151 69.7504V90.5504C363.151 91.1171 363.318 91.5837 363.651 91.9504C364.018 92.2837 364.551 92.5171 365.251 92.6504L369.151 93.3004C370.018 93.5337 370.451 93.9337 370.451 94.5004C370.451 94.8671 370.335 95.1504 370.101 95.3504C369.868 95.5504 369.485 95.6504 368.951 95.6504H346.301C345.768 95.6504 345.368 95.5504 345.101 95.3504C344.868 95.1171 344.751 94.8504 344.751 94.5504C344.751 93.9171 345.168 93.5004 346.001 93.3004L349.951 92.6504C350.685 92.5171 351.218 92.2837 351.551 91.9504C351.918 91.5837 352.101 91.1171 352.101 90.5504V70.0004Z" fill="white"/>
<path d="M279.415 68.2004H307.565L307.815 70.8504H279.065L279.415 68.2004ZM282.615 94.5504C282.615 94.8504 282.482 95.1171 282.215 95.3504C281.982 95.5504 281.599 95.6504 281.065 95.6504H266.115C265.615 95.6504 265.232 95.5504 264.965 95.3504C264.732 95.1504 264.615 94.8837 264.615 94.5504C264.615 94.2837 264.699 94.0671 264.865 93.9004C265.032 93.7004 265.332 93.5337 265.765 93.4004L267.865 92.7004C268.799 92.3671 269.599 91.8004 270.265 91.0004C270.932 90.1671 271.565 88.7671 272.165 86.8004L289.565 31.9004C289.932 30.8004 289.965 29.9671 289.665 29.4004C289.399 28.8337 288.699 28.4004 287.565 28.1004C286.932 27.9004 286.482 27.7004 286.215 27.5004C285.949 27.3004 285.815 27.0504 285.815 26.7504C285.815 26.3837 285.949 26.1171 286.215 25.9504C286.482 25.7504 286.882 25.6504 287.415 25.6504H305.815C306.349 25.6504 306.732 25.7504 306.965 25.9504C307.232 26.1171 307.365 26.3671 307.365 26.7004C307.365 27.0337 307.232 27.3171 306.965 27.5504C306.732 27.7504 306.315 27.9171 305.715 28.0504C304.749 28.2171 304.165 28.4837 303.965 28.8504C303.799 29.1837 303.849 29.7837 304.115 30.6504L323.615 89.6004C323.982 90.7337 324.449 91.5837 325.015 92.1504C325.615 92.6837 326.449 93.0337 327.515 93.2004C328.082 93.3671 328.465 93.5504 328.665 93.7504C328.865 93.9504 328.965 94.2171 328.965 94.5504C328.965 94.8504 328.832 95.1171 328.565 95.3504C328.299 95.5504 327.915 95.6504 327.415 95.6504H308.065C307.565 95.6504 307.182 95.5504 306.915 95.3504C306.649 95.1171 306.515 94.8504 306.515 94.5504C306.515 94.2504 306.615 94.0171 306.815 93.8504C307.049 93.6504 307.382 93.5004 307.815 93.4004L310.965 92.9504C311.765 92.7504 312.215 92.4004 312.315 91.9004C312.415 91.4004 312.315 90.6504 312.015 89.6504L292.515 29.9004L293.765 28.7504L275.465 86.5504C275.065 87.7504 274.915 88.7671 275.015 89.6004C275.149 90.4004 275.515 91.0671 276.115 91.6004C276.749 92.1004 277.599 92.5171 278.665 92.8504L281.365 93.4004C281.799 93.5337 282.115 93.6837 282.315 93.8504C282.515 94.0171 282.615 94.2504 282.615 94.5504Z" fill="white"/>
<path d="M202.845 61.2004H244.845V63.8504H202.845V61.2004ZM208.645 90.6004C208.645 91.1671 208.828 91.6171 209.195 91.9504C209.562 92.2837 210.095 92.5171 210.795 92.6504L214.745 93.3004C215.578 93.5004 215.995 93.9171 215.995 94.5504C215.995 94.8837 215.878 95.1504 215.645 95.3504C215.412 95.5504 215.028 95.6504 214.495 95.6504H191.795C191.295 95.6504 190.912 95.5504 190.645 95.3504C190.412 95.1504 190.295 94.8837 190.295 94.5504C190.295 93.9171 190.712 93.5004 191.545 93.3004L195.495 92.6504C196.195 92.5171 196.728 92.2837 197.095 91.9504C197.462 91.6171 197.645 91.1671 197.645 90.6004V30.7004C197.645 30.1337 197.462 29.6837 197.095 29.3504C196.728 29.0171 196.195 28.7837 195.495 28.6504L191.545 28.0004C190.712 27.8004 190.295 27.3837 190.295 26.7504C190.295 26.4171 190.412 26.1504 190.645 25.9504C190.912 25.7504 191.295 25.6504 191.795 25.6504H214.495C215.028 25.6504 215.412 25.7504 215.645 25.9504C215.878 26.1504 215.995 26.4171 215.995 26.7504C215.995 27.3837 215.578 27.8004 214.745 28.0004L210.795 28.6504C210.095 28.7837 209.562 29.0171 209.195 29.3504C208.828 29.6837 208.645 30.1337 208.645 30.7004V90.6004ZM251.795 90.6004C251.795 91.1671 251.978 91.6171 252.345 91.9504C252.712 92.2837 253.245 92.5171 253.945 92.6504L257.845 93.3004C258.678 93.5004 259.095 93.9171 259.095 94.5504C259.095 94.8837 258.978 95.1504 258.745 95.3504C258.512 95.5504 258.128 95.6504 257.595 95.6504H234.945C234.412 95.6504 234.012 95.5504 233.745 95.3504C233.512 95.1504 233.395 94.8837 233.395 94.5504C233.395 93.9171 233.828 93.5004 234.695 93.3004L238.595 92.6504C239.295 92.5171 239.828 92.2837 240.195 91.9504C240.562 91.6171 240.745 91.1671 240.745 90.6004V30.7004C240.745 30.1337 240.562 29.6837 240.195 29.3504C239.828 29.0171 239.295 28.7837 238.595 28.6504L234.695 28.0004C233.828 27.8004 233.395 27.3837 233.395 26.7504C233.395 26.4171 233.512 26.1504 233.745 25.9504C234.012 25.7504 234.412 25.6504 234.945 25.6504H257.595C258.128 25.6504 258.512 25.7504 258.745 25.9504C258.978 26.1504 259.095 26.4171 259.095 26.7504C259.095 27.3837 258.678 27.8004 257.845 28.0004L253.945 28.6504C253.245 28.7837 252.712 29.0171 252.345 29.3504C251.978 29.6837 251.795 30.1337 251.795 30.7004V90.6004Z" fill="white"/>
<path d="M159.721 97.0004C156.621 97.0004 154.021 96.5837 151.921 95.7504C149.854 94.9504 148.204 94.1504 146.971 93.3504C145.738 92.5504 144.888 92.1504 144.421 92.1504C144.021 92.1504 143.638 92.4004 143.271 92.9004C142.938 93.3671 142.588 93.9337 142.221 94.6004C141.854 95.2337 141.488 95.8004 141.121 96.3004C140.754 96.8004 140.371 97.0504 139.971 97.0504C139.604 97.0504 139.288 96.9171 139.021 96.6504C138.754 96.4171 138.554 96.0504 138.421 95.5504L134.621 77.8504C134.521 77.4504 134.538 77.1171 134.671 76.8504C134.838 76.5504 135.088 76.3337 135.421 76.2004C135.821 76.0671 136.171 76.0837 136.471 76.2504C136.771 76.4171 137.038 76.7171 137.271 77.1504C139.304 81.4171 141.488 84.8171 143.821 87.3504C146.188 89.8504 148.654 91.6504 151.221 92.7504C153.788 93.8171 156.404 94.3504 159.071 94.3504C162.838 94.3504 165.804 93.3171 167.971 91.2504C170.171 89.1504 171.271 86.3171 171.271 82.7504C171.304 80.5504 170.821 78.5171 169.821 76.6504C168.854 74.7504 167.104 72.9504 164.571 71.2504C162.071 69.5171 158.488 67.8337 153.821 66.2004C148.788 64.4337 144.754 62.4671 141.721 60.3004C138.721 58.1337 136.538 55.7171 135.171 53.0504C133.838 50.3504 133.171 47.3004 133.171 43.9004C133.171 40.0004 134.088 36.6004 135.921 33.7004C137.788 30.8004 140.354 28.5337 143.621 26.9004C146.921 25.2671 150.688 24.4504 154.921 24.4504C158.021 24.4504 160.554 24.8171 162.521 25.5504C164.488 26.2837 166.054 27.0171 167.221 27.7504C168.388 28.4837 169.271 28.8504 169.871 28.8504C170.438 28.8504 170.938 28.4837 171.371 27.7504C171.838 27.0171 172.288 26.2837 172.721 25.5504C173.188 24.7837 173.704 24.4004 174.271 24.4004C174.638 24.4004 174.938 24.5171 175.171 24.7504C175.438 24.9837 175.654 25.4171 175.821 26.0504L180.821 44.1504C180.954 44.5837 180.954 44.9837 180.821 45.3504C180.688 45.6837 180.438 45.9337 180.071 46.1004C179.704 46.2004 179.354 46.1837 179.021 46.0504C178.721 45.8837 178.454 45.6004 178.221 45.2004C176.021 40.6337 173.704 37.0337 171.271 34.4004C168.871 31.7671 166.371 29.9004 163.771 28.8004C161.171 27.6671 158.471 27.1004 155.671 27.1004C151.838 27.1004 148.721 28.2504 146.321 30.5504C143.954 32.8171 142.771 35.9004 142.771 39.8004C142.771 42.0671 143.254 44.1837 144.221 46.1504C145.188 48.0837 146.904 49.9337 149.371 51.7004C151.838 53.4671 155.304 55.1837 159.771 56.8504C165.004 58.7837 169.138 60.8337 172.171 63.0004C175.204 65.1337 177.354 67.4837 178.621 70.0504C179.921 72.5837 180.571 75.4171 180.571 78.5504C180.571 81.9504 179.754 85.0504 178.121 87.8504C176.488 90.6171 174.121 92.8337 171.021 94.5004C167.921 96.1671 164.154 97.0004 159.721 97.0004Z" fill="white"/>
<path d="M116.31 90.6004C116.31 91.1671 116.493 91.6171 116.86 91.9504C117.227 92.2837 117.76 92.5171 118.46 92.6504L122.36 93.3004C123.193 93.5004 123.61 93.9171 123.61 94.5504C123.61 94.8837 123.493 95.1504 123.26 95.3504C123.027 95.5504 122.643 95.6504 122.11 95.6504H99.4602C98.9268 95.6504 98.5268 95.5504 98.2602 95.3504C98.0268 95.1504 97.9102 94.8837 97.9102 94.5504C97.9102 93.9171 98.3268 93.5004 99.1602 93.3004L103.11 92.6504C103.81 92.5171 104.343 92.2837 104.71 91.9504C105.077 91.6171 105.26 91.1671 105.26 90.6004V30.7004C105.26 30.1337 105.077 29.6837 104.71 29.3504C104.343 29.0171 103.81 28.7837 103.11 28.6504L99.1602 28.0004C98.3268 27.8004 97.9102 27.3837 97.9102 26.7504C97.9102 26.4171 98.0268 26.1504 98.2602 25.9504C98.5268 25.7504 98.9268 25.6504 99.4602 25.6504H122.11C122.643 25.6504 123.027 25.7504 123.26 25.9504C123.493 26.1504 123.61 26.4171 123.61 26.7504C123.61 27.3837 123.193 27.8004 122.36 28.0004L118.46 28.6504C117.76 28.7837 117.227 29.0171 116.86 29.3504C116.493 29.6837 116.31 30.1337 116.31 30.7004V90.6004Z" fill="white"/>
<path d="M64.45 28.0004L60.55 28.6504C59.85 28.7837 59.3167 29.0171 58.95 29.3504C58.5833 29.6837 58.4 30.1337 58.4 30.7004V90.2504C58.4 91.2504 58.7 91.9671 59.3 92.4004C59.9 92.8337 60.8333 93.0504 62.1 93.0504H73.55C75.3167 93.0504 76.8667 92.7837 78.2 92.2504C79.5667 91.7171 80.8 90.7837 81.9 89.4504C83.0333 88.0837 84.1667 86.1337 85.3 83.6004L88.75 75.9004C88.95 75.4671 89.1833 75.1671 89.45 75.0004C89.7167 74.8004 90.05 74.7504 90.45 74.8504C90.8833 74.9171 91.1667 75.1004 91.3 75.4004C91.4667 75.7004 91.4833 76.1171 91.35 76.6504L86.95 95.3504C86.75 96.0837 86.5167 96.6004 86.25 96.9004C85.9833 97.2004 85.6167 97.3504 85.15 97.3504C84.6833 97.3504 84.1833 97.2004 83.65 96.9004C83.15 96.6337 82.55 96.3504 81.85 96.0504C81.1833 95.7837 80.3 95.6504 79.2 95.6504H41.55C41.0167 95.6504 40.6167 95.5504 40.35 95.3504C40.1167 95.1171 40 94.8504 40 94.5504C40 93.9171 40.4167 93.5004 41.25 93.3004L45.2 92.6504C45.9 92.5171 46.4333 92.2837 46.8 91.9504C47.1667 91.6171 47.35 91.1671 47.35 90.6004V30.7004C47.35 30.1337 47.1667 29.6837 46.8 29.3504C46.4333 29.0171 45.9 28.7837 45.2 28.6504L41.25 28.0004C40.4167 27.8004 40 27.3837 40 26.7504C40 26.4171 40.1167 26.1504 40.35 25.9504C40.6167 25.7504 41.0167 25.6504 41.55 25.6504H64.2C64.7333 25.6504 65.1167 25.7504 65.35 25.9504C65.5833 26.1504 65.7 26.4171 65.7 26.7504C65.7 27.3837 65.2833 27.8004 64.45 28.0004Z" fill="white"/>
</svg>
